<svg xmlns="http://www.w3.org/2000/svg" xmlns:xlink="http://www.w3.org/1999/xlink" width="532" zoomAndPan="magnify" viewBox="0 0 398.88 116.999995" height="156" preserveAspectRatio="xMidYMid meet" version="1.0"><defs><g/></defs><g fill="#f1ebc8" fill-opacity="1"><g transform="translate(9.86422, 72.745708)"><g><path d="M 25.738281 -4.929688 C 25.6875 -5.425781 25.640625 -5.875 25.640625 -6.273438 C 25.6875 -8.214844 25.191406 -10.054688 24.34375 -11.800781 C 24.144531 -12.246094 23.945312 -12.746094 23.648438 -13.242188 C 22.503906 -15.183594 22.800781 -16.976562 24.246094 -18.667969 C 25.242188 -19.8125 26.238281 -20.960938 27.230469 -22.105469 C 29.421875 -24.695312 31.714844 -27.28125 33.855469 -29.921875 C 36.042969 -32.660156 37.886719 -35.597656 39.429688 -38.734375 C 40.078125 -39.976562 40.574219 -41.273438 40.574219 -42.664062 C 40.625 -44.457031 39.777344 -45.554688 38.035156 -45.851562 C 36.492188 -46.152344 35 -45.953125 33.65625 -45.054688 C 32.460938 -44.257812 31.316406 -43.414062 30.21875 -42.464844 C 27.28125 -39.925781 24.695312 -37.039062 22.402344 -33.902344 C 18.867188 -29.222656 15.53125 -24.445312 12.097656 -19.765625 C 11.847656 -19.417969 11.75 -18.917969 11.101562 -18.96875 C 11.351562 -19.617188 11.550781 -20.164062 11.75 -20.710938 C 13.191406 -24.941406 14.738281 -29.175781 16.03125 -33.457031 C 17.027344 -36.640625 17.773438 -39.878906 18.371094 -43.164062 C 18.667969 -44.804688 18.667969 -46.5 18.519531 -48.140625 C 18.320312 -50.234375 17.078125 -51.179688 14.984375 -51.378906 C 13.640625 -51.476562 12.394531 -51.179688 11.402344 -50.28125 C 10.40625 -49.484375 9.410156 -48.589844 8.613281 -47.59375 C 4.976562 -43.113281 2.636719 -37.984375 1.394531 -32.308594 C 1.144531 -31.066406 1.144531 -29.769531 1.046875 -28.476562 C 1.046875 -28.277344 1.246094 -27.980469 1.445312 -27.582031 C 1.792969 -27.980469 2.042969 -28.128906 2.140625 -28.378906 C 2.488281 -29.222656 2.789062 -30.121094 3.136719 -30.964844 C 5.128906 -35.945312 7.667969 -40.675781 10.851562 -45.105469 C 11.847656 -46.449219 12.894531 -47.695312 14.339844 -48.890625 C 14.539062 -48.390625 14.738281 -48.042969 14.738281 -47.742188 C 14.785156 -46.796875 14.785156 -45.902344 14.738281 -45.003906 C 14.386719 -41.917969 13.691406 -38.882812 12.894531 -35.84375 C 11.203125 -29.472656 8.960938 -23.25 6.621094 -17.078125 C 5.574219 -14.238281 4.53125 -11.402344 3.484375 -8.5625 C 3.035156 -7.320312 3.535156 -6.722656 4.828125 -6.570312 C 5.726562 -6.472656 6.523438 -6.722656 7.070312 -7.417969 C 7.367188 -7.765625 7.667969 -8.113281 7.914062 -8.511719 C 10.453125 -12 12.992188 -15.53125 15.484375 -19.066406 C 19.464844 -24.695312 23.347656 -30.367188 27.929688 -35.597656 C 29.96875 -37.9375 32.210938 -40.078125 34.453125 -42.265625 C 35.097656 -42.964844 35.84375 -43.613281 36.839844 -43.859375 C 37.289062 -42.417969 37.386719 -42.417969 36.992188 -41.421875 C 36.394531 -39.777344 35.695312 -38.183594 34.898438 -36.640625 C 31.960938 -31.265625 28.128906 -26.585938 23.996094 -22.105469 C 22.949219 -21.007812 21.957031 -19.863281 21.007812 -18.667969 C 19.863281 -17.277344 19.714844 -15.632812 20.460938 -13.988281 C 20.859375 -13.09375 21.308594 -12.199219 21.707031 -11.300781 C 22.601562 -9.261719 23.050781 -7.121094 22.851562 -4.878906 C 22.75 -3.933594 22.351562 -3.386719 21.457031 -2.988281 C 15.234375 -0.0976562 9.660156 3.832031 4.183594 7.914062 C 3.136719 8.710938 2.191406 9.609375 1.292969 10.453125 C 0.847656 10.902344 0.496094 11.402344 0.199219 11.898438 C -0.25 12.695312 0 13.441406 0.796875 13.789062 C 1.84375 14.339844 2.988281 14.4375 4.132812 14.238281 C 4.828125 14.140625 5.476562 13.941406 6.125 13.742188 C 10.253906 12.199219 14.1875 10.304688 17.773438 7.667969 C 20.960938 5.328125 23.546875 2.488281 24.742188 -1.394531 C 25.042969 -2.242188 25.539062 -2.789062 26.335938 -3.136719 C 26.984375 -3.433594 27.828125 -3.585938 28.328125 -4.628906 C 27.28125 -4.730469 26.585938 -4.828125 25.738281 -4.929688 Z M 6.570312 10.054688 C 10.902344 6.421875 15.53125 3.136719 20.363281 0.148438 C 20.609375 0 20.859375 -0.0507812 21.457031 -0.25 C 21.160156 0.449219 21.058594 0.847656 20.859375 1.246094 C 19.964844 2.9375 18.769531 4.382812 17.324219 5.625 C 14.039062 8.414062 10.40625 10.453125 6.371094 11.898438 C 6.074219 12 5.773438 12.046875 5.476562 12.097656 C 5.328125 12.148438 5.175781 12.097656 4.628906 11.949219 C 5.375 11.203125 5.925781 10.605469 6.570312 10.054688 Z M 6.570312 10.054688 "/></g></g></g><g fill="#f1ebc8" fill-opacity="1"><g transform="translate(41.373633, 72.745708)"><g><path d="M 0.894531 1.34375 C 1.742188 0.796875 2.539062 0.296875 3.433594 -0.199219 C 5.226562 -1.144531 7.070312 -2.089844 8.863281 -3.035156 C 12.097656 -4.730469 15.132812 -6.722656 17.824219 -9.210938 C 19.167969 -10.453125 20.460938 -11.800781 21.558594 -13.191406 C 23.5 -15.730469 23.449219 -17.871094 21.558594 -20.511719 C 20.859375 -21.457031 20.011719 -22.351562 19.265625 -23.300781 C 17.824219 -25.140625 17.671875 -26.585938 18.96875 -28.476562 C 19.8125 -29.722656 20.910156 -30.867188 21.957031 -31.960938 C 23.101562 -33.15625 24.34375 -34.253906 25.488281 -35.445312 C 26.136719 -36.09375 26.734375 -36.839844 27.132812 -37.636719 C 27.878906 -38.933594 27.480469 -39.976562 26.039062 -40.523438 C 24.695312 -41.023438 23.25 -41.121094 21.804688 -40.824219 C 16.128906 -39.53125 11.101562 -37.039062 6.769531 -33.15625 C 5.972656 -32.460938 5.375 -31.5625 4.78125 -30.71875 C 4.582031 -30.417969 4.480469 -30.019531 4.429688 -29.621094 C 4.382812 -29.222656 5.078125 -28.777344 5.425781 -29.023438 C 5.625 -29.125 5.824219 -29.222656 5.972656 -29.375 C 10.503906 -33.605469 15.882812 -36.34375 21.707031 -38.234375 C 21.957031 -38.335938 22.203125 -38.285156 22.503906 -38.335938 C 22.503906 -37.984375 22.550781 -37.835938 22.503906 -37.738281 C 22.003906 -37.140625 21.558594 -36.542969 21.007812 -35.996094 C 19.617188 -34.601562 18.121094 -33.304688 16.828125 -31.863281 C 15.882812 -30.867188 15.132812 -29.722656 14.488281 -28.527344 C 13.691406 -27.082031 13.839844 -25.539062 14.738281 -24.195312 C 15.183594 -23.398438 15.832031 -22.75 16.378906 -22.003906 C 16.925781 -21.257812 17.523438 -20.609375 17.972656 -19.8125 C 18.917969 -18.269531 19.066406 -16.679688 17.921875 -15.132812 C 17.277344 -14.238281 16.578125 -13.292969 15.78125 -12.496094 C 13.492188 -10.054688 10.851562 -7.964844 8.015625 -6.222656 C 5.226562 -4.480469 2.441406 -2.789062 -0.296875 -1.046875 C -1.09375 -0.546875 -2.042969 -0.148438 -2.488281 1.144531 C -1.34375 2.042969 -0.25 2.089844 0.894531 1.34375 Z M 0.894531 1.34375 "/></g></g></g><g fill="#f1ebc8" fill-opacity="1"><g transform="translate(67.258148, 72.745708)"><g><path d="M 9.160156 -13.691406 C 9.507812 -14.4375 9.757812 -15.183594 10.105469 -15.882812 C 12 -19.664062 13.839844 -23.449219 15.683594 -27.230469 C 16.578125 -29.074219 17.375 -30.964844 18.121094 -32.859375 C 18.46875 -33.703125 18.71875 -34.601562 18.867188 -35.445312 C 19.167969 -37.039062 18.570312 -37.785156 16.976562 -37.9375 C 15.832031 -38.035156 14.835938 -37.6875 13.988281 -36.941406 C 13.542969 -36.59375 13.144531 -36.144531 12.792969 -35.695312 C 9.109375 -31.066406 5.726562 -26.1875 2.886719 -20.960938 C 2.140625 -19.515625 1.542969 -17.972656 0.996094 -16.429688 C 0.746094 -15.683594 0.796875 -14.785156 0.796875 -13.988281 C 0.796875 -13.839844 1.09375 -13.542969 1.292969 -13.542969 C 1.542969 -13.492188 1.890625 -13.640625 2.140625 -13.789062 C 2.242188 -13.839844 2.339844 -14.039062 2.390625 -14.1875 C 4.332031 -18.867188 7.320312 -22.902344 10.304688 -26.933594 C 10.554688 -27.28125 10.902344 -27.582031 11.203125 -27.878906 C 11.050781 -26.882812 10.703125 -26.085938 10.304688 -25.289062 C 7.914062 -20.410156 5.476562 -15.53125 3.136719 -10.652344 C 2.539062 -9.460938 2.089844 -8.214844 1.742188 -6.96875 C 1.34375 -5.574219 1.792969 -4.929688 3.1875 -4.679688 C 3.882812 -4.582031 4.679688 -4.628906 5.375 -4.730469 C 6.421875 -4.878906 7.167969 -5.574219 7.867188 -6.273438 C 10.007812 -8.5625 12.246094 -10.753906 14.289062 -13.144531 C 20.3125 -20.210938 26.285156 -27.332031 32.359375 -34.402344 C 34.453125 -36.839844 36.742188 -39.132812 38.980469 -41.421875 C 39.53125 -41.96875 40.027344 -42.664062 41.074219 -42.816406 C 41.023438 -42.316406 40.972656 -41.917969 40.875 -41.570312 C 40.175781 -39.726562 39.578125 -37.835938 38.734375 -36.042969 C 37.039062 -32.308594 35.199219 -28.625 33.457031 -24.890625 C 30.816406 -19.21875 28.027344 -13.640625 25.589844 -7.867188 C 22.800781 -1.292969 20.410156 5.476562 18.820312 12.496094 C 18.46875 13.941406 18.222656 15.433594 18.222656 16.878906 C 18.222656 19.367188 19.664062 20.261719 22.003906 19.464844 C 22.203125 19.367188 22.453125 19.265625 22.652344 19.117188 C 22.75 19.019531 22.800781 18.820312 22.851562 18.667969 C 22.304688 18.46875 21.707031 18.269531 21.109375 18.070312 C 21.160156 17.523438 21.109375 17.125 21.207031 16.726562 C 21.855469 14.238281 22.351562 11.75 23.199219 9.359375 C 25.789062 1.542969 29.074219 -6.023438 32.558594 -13.492188 C 35.695312 -20.113281 38.980469 -26.683594 42.066406 -33.304688 C 43.261719 -35.84375 44.210938 -38.484375 45.203125 -41.074219 C 45.453125 -41.769531 45.652344 -42.515625 45.703125 -43.261719 C 45.902344 -45.253906 45.15625 -46.101562 43.113281 -46.351562 C 41.671875 -46.5 40.277344 -46.25 39.082031 -45.554688 C 37.9375 -44.855469 36.839844 -44.109375 35.796875 -43.3125 C 32.0625 -40.277344 28.925781 -36.691406 25.839844 -33.007812 C 20.660156 -26.835938 15.53125 -20.660156 10.355469 -14.4375 C 10.054688 -14.140625 9.808594 -13.839844 9.507812 -13.542969 C 9.410156 -13.589844 9.261719 -13.640625 9.160156 -13.691406 Z M 9.160156 -13.691406 "/></g></g></g><g fill="#f1ebc8" fill-opacity="1"><g transform="translate(104.740907, 72.745708)"><g><path d="M 33.953125 -23.648438 C 35.996094 -31.214844 38.085938 -38.734375 40.175781 -46.25 C 40.476562 -47.34375 40.773438 -48.390625 40.875 -49.535156 C 39.28125 -50.183594 38.734375 -50.082031 38.183594 -48.890625 C 37.289062 -46.648438 36.34375 -44.410156 35.695312 -42.066406 C 33.753906 -35.347656 31.960938 -28.625 30.121094 -21.90625 C 29.921875 -21.160156 29.722656 -20.460938 29.523438 -19.863281 C 29.125 -19.664062 28.925781 -19.566406 28.726562 -19.515625 C 23.746094 -18.222656 18.769531 -16.925781 13.742188 -15.683594 C 13.441406 -15.582031 13.042969 -15.683594 12.546875 -15.683594 C 13.042969 -17.574219 13.441406 -19.367188 13.890625 -21.109375 C 14.339844 -22.851562 14.785156 -24.644531 15.234375 -26.386719 C 15.632812 -28.179688 16.082031 -29.921875 16.527344 -31.714844 C 16.925781 -33.457031 17.625 -35.148438 17.671875 -36.941406 C 16.429688 -37.4375 16.128906 -37.488281 15.632812 -37.289062 C 14.933594 -37.039062 14.539062 -36.492188 14.339844 -35.84375 C 13.941406 -34.75 13.542969 -33.703125 13.242188 -32.609375 C 12.148438 -28.425781 11.101562 -24.246094 10.054688 -20.0625 C 9.558594 -18.070312 9.0625 -16.082031 8.613281 -14.089844 C 7.167969 -13.542969 5.773438 -13.042969 4.480469 -12.445312 C 3.1875 -11.800781 1.59375 -11.5 0.796875 -9.808594 C 1.246094 -9.609375 1.691406 -9.261719 2.042969 -9.308594 C 2.835938 -9.359375 3.683594 -9.558594 4.480469 -9.757812 C 5.527344 -10.105469 6.472656 -10.703125 7.765625 -10.804688 C 7.667969 -10.15625 7.617188 -9.609375 7.515625 -9.109375 C 6.671875 -4.480469 5.726562 0.0976562 4.878906 4.730469 C 4.679688 5.972656 4.628906 7.269531 4.628906 8.5625 C 4.628906 9.808594 5.226562 10.054688 6.570312 9.460938 C 6.621094 7.167969 10.355469 -8.5625 11.75 -12.148438 C 11.898438 -12.246094 12.097656 -12.394531 12.296875 -12.445312 C 17.472656 -13.941406 22.652344 -15.433594 27.828125 -16.925781 C 28.078125 -16.976562 28.378906 -16.878906 28.726562 -16.828125 C 28.625 -16.28125 28.578125 -15.832031 28.476562 -15.382812 C 27.730469 -12.296875 26.933594 -9.210938 26.238281 -6.125 C 24.992188 -0.648438 23.796875 4.828125 22.652344 10.355469 C 22.402344 11.648438 22.402344 13.042969 22.402344 14.386719 C 22.402344 15.035156 22.652344 15.132812 23.796875 15.035156 C 25.140625 9.558594 26.484375 4.03125 27.929688 -1.445312 C 29.375 -7.019531 30.765625 -12.59375 32.460938 -18.070312 C 34.152344 -18.46875 35.695312 -18.867188 37.289062 -19.21875 C 38.234375 -19.417969 39.179688 -19.617188 40.175781 -19.21875 C 40.875 -18.96875 41.621094 -19.066406 42.265625 -19.515625 C 42.367188 -20.261719 41.96875 -20.609375 41.472656 -20.808594 C 40.921875 -21.058594 40.277344 -21.257812 39.726562 -21.207031 C 38.285156 -21.160156 36.839844 -21.007812 35.398438 -20.859375 C 34.75 -20.808594 34.101562 -20.710938 33.304688 -20.660156 C 33.304688 -21.804688 33.703125 -22.75 33.953125 -23.648438 Z M 33.953125 -23.648438 "/></g></g></g><g fill="#f1ebc8" fill-opacity="1"><g transform="translate(143.717015, 72.745708)"><g><path d="M 37.039062 -16.230469 C 37.539062 -20.363281 38.035156 -24.496094 38.535156 -28.675781 C 39.179688 -33.40625 39.878906 -38.136719 40.476562 -42.863281 C 40.625 -43.8125 40.675781 -44.804688 40.675781 -45.800781 C 40.675781 -46.949219 40.125 -47.445312 38.980469 -47.496094 C 38.035156 -47.542969 37.1875 -47.195312 36.542969 -46.5 C 35.597656 -45.503906 34.648438 -44.507812 33.804688 -43.460938 C 28.027344 -36.195312 23.101562 -28.378906 19.066406 -20.011719 C 17.277344 -16.328125 15.53125 -12.59375 13.789062 -8.910156 C 13.34375 -7.964844 12.792969 -7.320312 11.75 -6.921875 C 10.355469 -6.371094 8.960938 -5.726562 7.617188 -5.027344 C 6.125 -4.28125 4.679688 -3.433594 3.285156 -2.589844 C 2.835938 -2.339844 2.339844 -1.992188 2.488281 -1.292969 C 3.285156 -0.546875 4.230469 -0.496094 5.226562 -0.847656 C 6.820312 -1.394531 8.3125 -2.042969 9.90625 -2.636719 C 10.207031 -2.738281 10.554688 -2.6875 11.050781 -2.789062 C 10.753906 -1.890625 10.503906 -1.292969 10.253906 -0.648438 C 9.410156 1.941406 8.464844 4.53125 7.714844 7.121094 C 7.320312 8.414062 7.167969 9.808594 6.96875 11.152344 C 6.921875 11.5 6.96875 11.949219 7.167969 12.246094 C 7.320312 12.496094 7.714844 12.746094 8.066406 12.746094 C 8.265625 12.792969 8.613281 12.496094 8.710938 12.296875 C 9.011719 11.351562 9.109375 10.355469 9.507812 9.410156 C 11.152344 5.128906 12.894531 0.847656 14.585938 -3.484375 C 14.984375 -4.480469 15.632812 -5.027344 16.628906 -5.375 C 21.359375 -7.070312 26.039062 -8.8125 30.765625 -10.503906 C 31.214844 -10.652344 31.761719 -10.703125 32.359375 -10.851562 C 32.359375 -10.054688 32.410156 -9.359375 32.359375 -8.710938 C 32.160156 -6.671875 32.011719 -4.628906 31.8125 -2.589844 C 31.214844 3.386719 30.867188 9.359375 31.066406 15.332031 C 31.117188 17.078125 31.316406 18.820312 31.515625 20.5625 C 31.613281 21.308594 31.8125 22.054688 32.113281 22.75 C 32.460938 23.648438 33.15625 24.246094 34.152344 24.296875 C 35.199219 24.394531 36.042969 24.046875 36.640625 22.902344 C 35.996094 22.75 35.445312 22.601562 34.847656 22.402344 C 34.75 21.90625 34.648438 21.507812 34.601562 21.058594 C 34.203125 17.921875 34.203125 14.835938 34.453125 11.75 C 35 5.226562 35.546875 -1.246094 36.144531 -7.765625 C 36.242188 -9.261719 36.492188 -10.753906 36.691406 -12.246094 C 40.425781 -13.292969 43.910156 -14.386719 47.644531 -14.6875 C 47.644531 -15.035156 47.644531 -15.234375 47.59375 -15.484375 C 47.542969 -15.683594 47.394531 -15.882812 47.246094 -16.082031 C 43.859375 -16.679688 40.675781 -15.53125 37.140625 -15.085938 C 37.089844 -15.632812 37.039062 -15.929688 37.039062 -16.230469 Z M 37.238281 -43.164062 C 37.089844 -40.625 36.492188 -38.335938 36.09375 -35.996094 C 35.695312 -33.554688 35.296875 -31.066406 34.949219 -28.625 C 34.550781 -26.1875 34.203125 -23.796875 33.855469 -21.40625 C 33.503906 -19.019531 33.257812 -16.628906 32.90625 -14.039062 C 30.417969 -13.191406 27.828125 -12.644531 25.289062 -11.847656 C 22.800781 -11.050781 20.3125 -10.253906 17.722656 -9.460938 C 19.265625 -15.53125 32.359375 -38.136719 37.238281 -43.164062 Z M 37.238281 -43.164062 "/></g></g></g><g fill="#f1ebc8" fill-opacity="1"><g transform="translate(190.60781, 72.745708)"><g><path d="M 24.445312 -23.996094 C 24.84375 -24.195312 25.242188 -24.34375 25.539062 -24.644531 C 27.929688 -27.332031 30.367188 -30.019531 32.707031 -32.859375 C 34.003906 -34.453125 34.898438 -36.292969 35.445312 -38.335938 C 36.394531 -41.871094 35 -44.257812 31.414062 -45.15625 C 31.117188 -45.253906 30.816406 -45.304688 30.519531 -45.304688 C 28.476562 -45.503906 26.4375 -45.453125 24.445312 -44.957031 C 20.5625 -43.960938 16.976562 -42.316406 13.691406 -40.175781 C 9.660156 -37.539062 5.925781 -34.550781 2.441406 -31.265625 C 1.34375 -30.21875 0.296875 -29.125 -0.597656 -27.878906 C -1.292969 -26.933594 -1.792969 -25.789062 -2.242188 -24.695312 C -2.835938 -23 -2.488281 -21.308594 -1.292969 -19.964844 C -0.398438 -18.96875 0.648438 -18.023438 1.742188 -17.324219 C 3.285156 -16.328125 4.929688 -15.484375 6.570312 -14.785156 C 9.859375 -13.34375 13.191406 -12.097656 16.480469 -10.703125 C 18.820312 -9.707031 21.207031 -8.664062 23.5 -7.515625 C 24.695312 -6.871094 25.839844 -6.074219 26.835938 -5.175781 C 29.125 -3.085938 29.574219 -0.347656 28.328125 2.488281 C 27.78125 3.785156 26.984375 4.53125 25.539062 4.878906 C 19.714844 6.222656 14.089844 8.3125 8.613281 10.753906 C 7.417969 11.300781 6.273438 11.847656 5.175781 12.496094 C 4.480469 12.945312 3.832031 13.542969 3.285156 14.140625 C 2.835938 14.636719 2.9375 15.382812 3.535156 15.730469 C 4.332031 16.128906 5.175781 16.527344 6.023438 16.578125 C 7.417969 16.726562 8.8125 16.777344 10.105469 16.527344 C 17.824219 15.085938 24.445312 11.601562 29.671875 5.773438 C 30.566406 4.78125 31.464844 3.984375 32.90625 3.734375 C 32.410156 3.585938 32.113281 3.484375 31.664062 3.335938 C 31.8125 2.835938 31.960938 2.488281 32.113281 2.140625 C 33.65625 -1.59375 32.558594 -4.582031 29.820312 -6.769531 C 28.476562 -7.867188 26.984375 -8.863281 25.441406 -9.609375 C 22.75 -10.953125 19.914062 -12.148438 17.125 -13.34375 C 14.488281 -14.488281 11.800781 -15.484375 9.210938 -16.726562 C 7.566406 -17.472656 5.925781 -18.421875 4.480469 -19.464844 C 2.140625 -21.257812 1.691406 -23.546875 3.136719 -26.085938 C 3.882812 -27.429688 4.828125 -28.625 5.875 -29.722656 C 9.308594 -33.304688 13.09375 -36.441406 17.175781 -39.230469 C 19.617188 -40.921875 22.253906 -42.265625 25.089844 -43.164062 C 26.085938 -43.460938 27.132812 -43.710938 28.179688 -43.8125 C 30.21875 -43.960938 31.5625 -42.714844 31.613281 -40.722656 C 31.664062 -39.878906 31.613281 -38.980469 31.316406 -38.234375 C 30.765625 -36.59375 30.167969 -34.949219 29.375 -33.40625 C 28.378906 -31.515625 27.183594 -29.769531 26.136719 -27.929688 C 25.441406 -26.785156 24.792969 -25.589844 24.144531 -24.394531 C 24.246094 -24.246094 24.34375 -24.097656 24.445312 -23.996094 Z M 7.167969 14.785156 C 6.921875 14.339844 7.269531 14.089844 7.566406 13.890625 C 8.363281 13.292969 9.160156 12.695312 10.007812 12.246094 C 14.6875 9.707031 19.617188 7.714844 24.644531 6.074219 C 24.992188 5.972656 25.339844 5.875 25.839844 5.773438 C 22.601562 10.652344 11.949219 15.730469 7.167969 14.785156 Z M 7.167969 14.785156 "/></g></g></g><g fill="#f1ebc8" fill-opacity="1"><g transform="translate(229.583906, 72.745708)"><g><path d="M 24.445312 -23.996094 C 24.84375 -24.195312 25.242188 -24.34375 25.539062 -24.644531 C 27.929688 -27.332031 30.367188 -30.019531 32.707031 -32.859375 C 34.003906 -34.453125 34.898438 -36.292969 35.445312 -38.335938 C 36.394531 -41.871094 35 -44.257812 31.414062 -45.15625 C 31.117188 -45.253906 30.816406 -45.304688 30.519531 -45.304688 C 28.476562 -45.503906 26.4375 -45.453125 24.445312 -44.957031 C 20.5625 -43.960938 16.976562 -42.316406 13.691406 -40.175781 C 9.660156 -37.539062 5.925781 -34.550781 2.441406 -31.265625 C 1.34375 -30.21875 0.296875 -29.125 -0.597656 -27.878906 C -1.292969 -26.933594 -1.792969 -25.789062 -2.242188 -24.695312 C -2.835938 -23 -2.488281 -21.308594 -1.292969 -19.964844 C -0.398438 -18.96875 0.648438 -18.023438 1.742188 -17.324219 C 3.285156 -16.328125 4.929688 -15.484375 6.570312 -14.785156 C 9.859375 -13.34375 13.191406 -12.097656 16.480469 -10.703125 C 18.820312 -9.707031 21.207031 -8.664062 23.5 -7.515625 C 24.695312 -6.871094 25.839844 -6.074219 26.835938 -5.175781 C 29.125 -3.085938 29.574219 -0.347656 28.328125 2.488281 C 27.78125 3.785156 26.984375 4.53125 25.539062 4.878906 C 19.714844 6.222656 14.089844 8.3125 8.613281 10.753906 C 7.417969 11.300781 6.273438 11.847656 5.175781 12.496094 C 4.480469 12.945312 3.832031 13.542969 3.285156 14.140625 C 2.835938 14.636719 2.9375 15.382812 3.535156 15.730469 C 4.332031 16.128906 5.175781 16.527344 6.023438 16.578125 C 7.417969 16.726562 8.8125 16.777344 10.105469 16.527344 C 17.824219 15.085938 24.445312 11.601562 29.671875 5.773438 C 30.566406 4.78125 31.464844 3.984375 32.90625 3.734375 C 32.410156 3.585938 32.113281 3.484375 31.664062 3.335938 C 31.8125 2.835938 31.960938 2.488281 32.113281 2.140625 C 33.65625 -1.59375 32.558594 -4.582031 29.820312 -6.769531 C 28.476562 -7.867188 26.984375 -8.863281 25.441406 -9.609375 C 22.75 -10.953125 19.914062 -12.148438 17.125 -13.34375 C 14.488281 -14.488281 11.800781 -15.484375 9.210938 -16.726562 C 7.566406 -17.472656 5.925781 -18.421875 4.480469 -19.464844 C 2.140625 -21.257812 1.691406 -23.546875 3.136719 -26.085938 C 3.882812 -27.429688 4.828125 -28.625 5.875 -29.722656 C 9.308594 -33.304688 13.09375 -36.441406 17.175781 -39.230469 C 19.617188 -40.921875 22.253906 -42.265625 25.089844 -43.164062 C 26.085938 -43.460938 27.132812 -43.710938 28.179688 -43.8125 C 30.21875 -43.960938 31.5625 -42.714844 31.613281 -40.722656 C 31.664062 -39.878906 31.613281 -38.980469 31.316406 -38.234375 C 30.765625 -36.59375 30.167969 -34.949219 29.375 -33.40625 C 28.378906 -31.515625 27.183594 -29.769531 26.136719 -27.929688 C 25.441406 -26.785156 24.792969 -25.589844 24.144531 -24.394531 C 24.246094 -24.246094 24.34375 -24.097656 24.445312 -23.996094 Z M 7.167969 14.785156 C 6.921875 14.339844 7.269531 14.089844 7.566406 13.890625 C 8.363281 13.292969 9.160156 12.695312 10.007812 12.246094 C 14.6875 9.707031 19.617188 7.714844 24.644531 6.074219 C 24.992188 5.972656 25.339844 5.875 25.839844 5.773438 C 22.601562 10.652344 11.949219 15.730469 7.167969 14.785156 Z M 7.167969 14.785156 "/></g></g></g><g fill="#f1ebc8" fill-opacity="1"><g transform="translate(268.560003, 72.745708)"><g><path d="M 42.265625 -39.628906 C 41.171875 -42.167969 39.28125 -43.5625 36.492188 -43.710938 C 35.84375 -43.761719 35.148438 -43.710938 34.453125 -43.613281 C 31.613281 -43.164062 29.175781 -41.769531 27.035156 -39.878906 C 21.855469 -35.246094 17.921875 -29.769531 15.433594 -23.25 C 14.984375 -21.957031 14.339844 -20.761719 13.542969 -19.664062 C 9.160156 -13.492188 5.824219 -6.820312 3.433594 0.347656 C 2.6875 2.636719 2.289062 4.929688 2.539062 7.320312 C 2.789062 9.757812 4.132812 11.351562 6.472656 12.097656 C 7.367188 12.394531 8.363281 12.496094 9.359375 12.546875 C 11.601562 12.644531 13.691406 12 15.730469 11.050781 C 19.265625 9.359375 22.304688 7.019531 25.089844 4.28125 C 32.507812 -3.035156 37.785156 -11.699219 41.171875 -21.558594 C 42.464844 -25.289062 43.3125 -29.175781 43.3125 -33.15625 C 43.3125 -35.347656 43.214844 -37.539062 42.265625 -39.628906 Z M 13.691406 -9.808594 C 14.488281 -6.921875 16.429688 -5.328125 19.265625 -4.828125 C 21.40625 -4.480469 23.546875 -4.679688 25.539062 -5.425781 C 25.738281 -5.527344 25.886719 -5.726562 26.238281 -5.972656 C 25.839844 -6.171875 25.539062 -6.472656 25.242188 -6.472656 C 24.394531 -6.472656 23.597656 -6.371094 22.75 -6.273438 C 20.410156 -5.925781 18.917969 -6.722656 18.121094 -8.910156 C 17.824219 -9.757812 17.671875 -10.703125 17.671875 -11.601562 C 17.523438 -14.738281 18.320312 -17.773438 19.367188 -20.710938 C 19.417969 -20.859375 19.617188 -21.007812 19.964844 -21.359375 C 19.863281 -20.164062 19.8125 -19.21875 19.714844 -18.023438 C 20.210938 -18.269531 20.511719 -18.371094 20.660156 -18.570312 C 21.804688 -20.011719 22.503906 -21.707031 23 -23.449219 C 23.300781 -24.542969 23.101562 -24.792969 21.757812 -26.085938 C 21.804688 -26.285156 21.804688 -26.535156 21.90625 -26.734375 C 24.144531 -31.015625 26.882812 -34.898438 30.269531 -38.335938 C 31.515625 -39.578125 32.859375 -40.625 34.5 -41.371094 C 35.796875 -41.917969 36.394531 -41.769531 37.1875 -40.574219 C 38.136719 -39.082031 38.535156 -37.386719 38.683594 -35.597656 C 38.882812 -32.160156 38.484375 -28.777344 37.539062 -25.488281 C 34.203125 -13.839844 28.277344 -3.734375 19.265625 4.429688 C 17.226562 6.273438 14.984375 7.867188 12.546875 9.0625 C 12.046875 9.308594 11.601562 9.558594 11.101562 9.757812 C 9.410156 10.40625 8.613281 10.054688 7.964844 8.265625 C 7.714844 7.566406 7.617188 6.820312 7.566406 6.074219 C 7.46875 4.382812 7.765625 2.738281 8.214844 1.09375 C 9.359375 -2.988281 10.953125 -6.921875 12.792969 -10.753906 C 12.84375 -10.902344 12.992188 -10.953125 13.34375 -11.300781 C 13.492188 -10.703125 13.542969 -10.253906 13.691406 -9.808594 Z M 13.691406 -9.808594 "/></g></g></g><g fill="#f1ebc8" fill-opacity="1"><g transform="translate(308.63122, 72.745708)"><g><path d="M 44.457031 -44.65625 C 43.960938 -43.710938 43.5625 -42.714844 43.0625 -41.769531 C 41.917969 -39.378906 40.773438 -36.992188 39.628906 -34.601562 C 35.246094 -25.589844 29.621094 -17.425781 22.949219 -9.957031 C 20.710938 -7.417969 18.222656 -5.078125 15.730469 -2.738281 C 13.789062 -0.945312 11.601562 0.597656 9.261719 1.890625 C 8.265625 2.390625 7.21875 2.835938 6.125 3.234375 C 5.375 3.535156 4.78125 3.285156 4.480469 2.539062 C 4.183594 1.59375 3.933594 0.648438 3.832031 -0.347656 C 3.683594 -3.1875 4.332031 -5.925781 5.078125 -8.613281 C 7.515625 -17.324219 10.703125 -25.789062 14.039062 -34.152344 C 14.386719 -35 14.6875 -35.894531 15.183594 -36.640625 C 15.632812 -37.339844 16.28125 -37.984375 16.925781 -38.683594 C 16.230469 -39.480469 15.433594 -39.378906 14.6875 -38.882812 C 14.140625 -38.484375 13.691406 -37.9375 13.34375 -37.386719 C 12.695312 -36.34375 12.097656 -35.246094 11.601562 -34.152344 C 8.511719 -27.332031 5.875 -20.3125 3.484375 -13.191406 C 2.441406 -10.105469 1.445312 -6.96875 1.046875 -3.734375 C 0.796875 -2.089844 0.746094 -0.398438 0.894531 1.246094 C 1.09375 3.585938 2.441406 4.730469 4.828125 4.878906 C 6.371094 4.976562 7.816406 4.730469 9.261719 4.183594 C 11.75 3.1875 14.039062 1.792969 16.128906 0.199219 C 19.464844 -2.339844 22.503906 -5.175781 25.289062 -8.3125 C 29.621094 -13.191406 33.605469 -18.371094 37.140625 -23.847656 C 37.488281 -24.394531 37.886719 -24.890625 38.285156 -25.441406 C 38.285156 -24.542969 38.085938 -23.746094 37.835938 -22.949219 C 36.042969 -17.277344 34.203125 -11.550781 32.460938 -5.824219 C 31.265625 -1.890625 30.269531 2.042969 29.722656 6.125 C 29.523438 7.566406 29.472656 9.011719 29.671875 10.304688 C 30.417969 10.753906 30.964844 10.804688 31.515625 10.253906 C 31.960938 6.820312 32.757812 3.433594 33.855469 0.0976562 C 37.289062 -10.253906 40.773438 -20.609375 44.210938 -30.964844 C 45.601562 -35.046875 46.949219 -39.132812 48.292969 -43.261719 C 48.589844 -44.109375 48.890625 -44.957031 48.640625 -46.050781 C 46.152344 -46.898438 45.453125 -46.648438 44.457031 -44.65625 Z M 44.457031 -44.65625 "/></g></g></g><g fill="#f1ebc8" fill-opacity="1"><g transform="translate(351.539765, 72.745708)"><g><path d="M 9.160156 -13.691406 C 9.507812 -14.4375 9.757812 -15.183594 10.105469 -15.882812 C 12 -19.664062 13.839844 -23.449219 15.683594 -27.230469 C 16.578125 -29.074219 17.375 -30.964844 18.121094 -32.859375 C 18.46875 -33.703125 18.71875 -34.601562 18.867188 -35.445312 C 19.167969 -37.039062 18.570312 -37.785156 16.976562 -37.9375 C 15.832031 -38.035156 14.835938 -37.6875 13.988281 -36.941406 C 13.542969 -36.59375 13.144531 -36.144531 12.792969 -35.695312 C 9.109375 -31.066406 5.726562 -26.1875 2.886719 -20.960938 C 2.140625 -19.515625 1.542969 -17.972656 0.996094 -16.429688 C 0.746094 -15.683594 0.796875 -14.785156 0.796875 -13.988281 C 0.796875 -13.839844 1.09375 -13.542969 1.292969 -13.542969 C 1.542969 -13.492188 1.890625 -13.640625 2.140625 -13.789062 C 2.242188 -13.839844 2.339844 -14.039062 2.390625 -14.1875 C 4.332031 -18.867188 7.320312 -22.902344 10.304688 -26.933594 C 10.554688 -27.28125 10.902344 -27.582031 11.203125 -27.878906 C 11.050781 -26.882812 10.703125 -26.085938 10.304688 -25.289062 C 7.914062 -20.410156 5.476562 -15.53125 3.136719 -10.652344 C 2.539062 -9.460938 2.089844 -8.214844 1.742188 -6.96875 C 1.34375 -5.574219 1.792969 -4.929688 3.1875 -4.679688 C 3.882812 -4.582031 4.679688 -4.628906 5.375 -4.730469 C 6.421875 -4.878906 7.167969 -5.574219 7.867188 -6.273438 C 10.007812 -8.5625 12.246094 -10.753906 14.289062 -13.144531 C 20.3125 -20.210938 26.285156 -27.332031 32.359375 -34.402344 C 34.453125 -36.839844 36.742188 -39.132812 38.980469 -41.421875 C 39.53125 -41.96875 40.027344 -42.664062 41.074219 -42.816406 C 41.023438 -42.316406 40.972656 -41.917969 40.875 -41.570312 C 40.175781 -39.726562 39.578125 -37.835938 38.734375 -36.042969 C 37.039062 -32.308594 35.199219 -28.625 33.457031 -24.890625 C 30.816406 -19.21875 28.027344 -13.640625 25.589844 -7.867188 C 22.800781 -1.292969 20.410156 5.476562 18.820312 12.496094 C 18.46875 13.941406 18.222656 15.433594 18.222656 16.878906 C 18.222656 19.367188 19.664062 20.261719 22.003906 19.464844 C 22.203125 19.367188 22.453125 19.265625 22.652344 19.117188 C 22.75 19.019531 22.800781 18.820312 22.851562 18.667969 C 22.304688 18.46875 21.707031 18.269531 21.109375 18.070312 C 21.160156 17.523438 21.109375 17.125 21.207031 16.726562 C 21.855469 14.238281 22.351562 11.75 23.199219 9.359375 C 25.789062 1.542969 29.074219 -6.023438 32.558594 -13.492188 C 35.695312 -20.113281 38.980469 -26.683594 42.066406 -33.304688 C 43.261719 -35.84375 44.210938 -38.484375 45.203125 -41.074219 C 45.453125 -41.769531 45.652344 -42.515625 45.703125 -43.261719 C 45.902344 -45.253906 45.15625 -46.101562 43.113281 -46.351562 C 41.671875 -46.5 40.277344 -46.25 39.082031 -45.554688 C 37.9375 -44.855469 36.839844 -44.109375 35.796875 -43.3125 C 32.0625 -40.277344 28.925781 -36.691406 25.839844 -33.007812 C 20.660156 -26.835938 15.53125 -20.660156 10.355469 -14.4375 C 10.054688 -14.140625 9.808594 -13.839844 9.507812 -13.542969 C 9.410156 -13.589844 9.261719 -13.640625 9.160156 -13.691406 Z M 9.160156 -13.691406 "/></g></g></g></svg>