<svg xmlns="http://www.w3.org/2000/svg" xmlns:xlink="http://www.w3.org/1999/xlink" width="100" zoomAndPan="magnify" viewBox="0 0 75 74.999997" height="100" preserveAspectRatio="xMidYMid meet" version="1.0"><defs><clipPath id="a4c295912a"><path d="M 12 13 L 73 13 L 73 66.515625 L 12 66.515625 Z M 12 13 " clip-rule="nonzero"/></clipPath><clipPath id="8961b7efb4"><path d="M 66 8.765625 L 75 8.765625 L 75 18 L 66 18 Z M 66 8.765625 " clip-rule="nonzero"/></clipPath></defs><g clip-path="url(#a4c295912a)"><path fill="#f1ebc8" d="M 19.316406 13.023438 L 12.425781 21.875 L 20.222656 14.183594 L 38.820312 14.652344 L 32.269531 22.035156 L 40.285156 14.6875 L 41.917969 14.730469 L 50.214844 24.320312 L 29.929688 24.910156 L 21.402344 15.703125 L 28.605469 24.949219 L 13.496094 25.390625 L 29.230469 26.328125 L 41.175781 66.515625 L 30.734375 26.417969 L 52.183594 27.695312 L 41.175781 66.515625 L 55.234375 27.878906 L 65.648438 28.5 L 41.175781 66.515625 L 72.664062 25.390625 L 63.035156 13.023438 Z M 43.347656 14.765625 L 59.816406 15.175781 L 54.210938 24.203125 L 53.542969 24.222656 Z M 66.6875 23.839844 L 54.535156 24.195312 L 62.296875 16.769531 L 66.316406 23.242188 Z M 66.6875 23.839844 " fill-opacity="1" fill-rule="evenodd"/></g><path fill="#f1ebc8" d="M 9.140625 27.121094 L 9.5625 31.6875 L 9.984375 27.121094 L 14.527344 26.695312 L 9.984375 26.273438 L 9.5625 21.707031 L 9.140625 26.273438 L 4.59375 26.695312 Z M 9.140625 27.121094 " fill-opacity="1" fill-rule="evenodd"/><g clip-path="url(#8961b7efb4)"><path fill="#f1ebc8" d="M 70.191406 13.554688 L 70.566406 17.59375 L 70.941406 13.554688 L 74.957031 13.179688 L 70.941406 12.804688 L 70.566406 8.765625 L 70.191406 12.804688 L 66.171875 13.179688 Z M 70.191406 13.554688 " fill-opacity="1" fill-rule="evenodd"/></g><path fill="#f1ebc8" d="M 7.84375 41.894531 L 14.425781 41.28125 L 7.84375 40.664062 L 7.234375 34.054688 L 6.621094 40.664062 L 0.0429688 41.28125 L 6.621094 41.894531 L 7.234375 48.503906 Z M 7.84375 41.894531 " fill-opacity="1" fill-rule="evenodd"/><path fill="#f1ebc8" d="M 23.191406 51.65625 L 22.332031 42.355469 L 21.46875 51.65625 L 12.214844 52.523438 L 21.46875 53.386719 L 22.332031 62.6875 L 23.191406 53.386719 L 32.449219 52.523438 Z M 23.191406 51.65625 " fill-opacity="1" fill-rule="evenodd"/></svg>