<svg xmlns="http://www.w3.org/2000/svg" xmlns:xlink="http://www.w3.org/1999/xlink" width="100" zoomAndPan="magnify" viewBox="0 0 75 74.999997" height="100" preserveAspectRatio="xMidYMid meet" version="1.0"><defs><clipPath id="47a7d52105"><path d="M 2.386719 5 L 72 5 L 72 75 L 2.386719 75 Z M 2.386719 5 " clip-rule="nonzero"/></clipPath></defs><g clip-path="url(#47a7d52105)"><path fill="#f1ebc8" d="M 71.472656 35.160156 C 70.835938 32.980469 69.242188 31.144531 67.644531 29.761719 C 71.804688 23.304688 72.894531 16.695312 68.953125 12.378906 C 59.75 2.296875 46.84375 12.25 46.84375 12.25 C 46.84375 12.25 36.074219 0.03125 25.113281 8.1875 C 21.035156 11.21875 20.359375 16.675781 22.121094 22.726562 C 19.929688 23.703125 17.238281 25.328125 15.867188 27.792969 C 14.886719 29.5625 14.707031 31.550781 15.347656 33.535156 C 16.042969 35.683594 18.203125 36.96875 22.152344 37.433594 C 22.160156 37.433594 22.167969 37.433594 22.171875 37.433594 C 22.238281 37.441406 22.308594 37.449219 22.375 37.457031 C 22.460938 37.464844 22.542969 37.476562 22.632812 37.484375 C 22.707031 37.492188 22.78125 37.496094 22.855469 37.503906 C 22.9375 37.511719 23.023438 37.519531 23.105469 37.527344 C 23.183594 37.53125 23.261719 37.539062 23.34375 37.542969 C 23.425781 37.550781 23.511719 37.554688 23.597656 37.5625 C 23.679688 37.566406 23.761719 37.570312 23.84375 37.574219 C 23.929688 37.578125 24.019531 37.585938 24.105469 37.589844 C 24.191406 37.59375 24.273438 37.597656 24.359375 37.601562 C 24.449219 37.601562 24.539062 37.605469 24.628906 37.609375 C 24.714844 37.613281 24.800781 37.613281 24.890625 37.617188 C 24.984375 37.621094 25.082031 37.621094 25.179688 37.625 C 25.265625 37.625 25.347656 37.625 25.4375 37.628906 C 25.554688 37.628906 25.675781 37.628906 25.800781 37.628906 C 25.863281 37.628906 25.921875 37.632812 25.988281 37.632812 C 27.359375 37.632812 28.871094 37.570312 30.535156 37.449219 C 31.152344 38.167969 31.800781 38.871094 32.46875 39.558594 L 10.5625 51.894531 C 6.457031 45.878906 2.574219 46.839844 2.574219 46.839844 L 9.527344 59.0625 L 36.644531 43.378906 C 38.753906 45.085938 41.023438 46.621094 43.410156 47.898438 C 44.746094 47.484375 46.070312 46.996094 47.363281 46.441406 L 39.886719 68.785156 C 32.789062 67.0625 30.558594 70.367188 30.558594 70.367188 L 43.941406 74.792969 L 54.015625 42.933594 C 54.679688 42.511719 55.328125 42.078125 55.964844 41.628906 C 57.199219 41.984375 58.351562 42.285156 59.421875 42.527344 C 65.695312 43.945312 69.21875 43.375 70.707031 40.875 C 71.773438 39.078125 72.039062 37.101562 71.472656 35.160156 Z M 19.964844 30.058594 C 20.648438 28.824219 22.261719 27.820312 23.777344 27.113281 C 24.671875 29.0625 25.78125 31.023438 27.082031 32.945312 C 27.050781 32.945312 27.023438 32.949219 26.992188 32.949219 C 26.894531 32.949219 26.796875 32.953125 26.703125 32.953125 C 26.675781 32.953125 26.644531 32.957031 26.613281 32.957031 C 26.519531 32.957031 26.421875 32.957031 26.328125 32.960938 C 26.300781 32.960938 26.277344 32.960938 26.25 32.960938 C 26.15625 32.960938 26.0625 32.960938 25.96875 32.960938 C 25.945312 32.960938 25.921875 32.960938 25.902344 32.960938 C 25.804688 32.960938 25.710938 32.960938 25.617188 32.960938 C 25.601562 32.960938 25.585938 32.960938 25.570312 32.960938 C 25.472656 32.960938 25.378906 32.957031 25.285156 32.957031 C 25.273438 32.957031 25.265625 32.957031 25.253906 32.957031 C 21.0625 32.890625 19.980469 32.183594 19.777344 32.011719 C 19.5625 31.285156 19.621094 30.679688 19.964844 30.058594 Z M 66.722656 38.414062 C 66.476562 38.542969 65.152344 39.035156 60.527344 37.988281 C 62.109375 36.566406 63.554688 35.070312 64.84375 33.535156 C 65.820312 34.414062 66.675781 35.4375 66.972656 36.464844 C 67.171875 37.148438 67.09375 37.753906 66.722656 38.414062 Z M 66.722656 38.414062 " fill-opacity="1" fill-rule="nonzero"/><path fill="#140d0d" d="M 41.925781 18.671875 C 41.988281 18.800781 41.929688 18.953125 41.796875 19.011719 C 41.761719 19.03125 41.726562 19.035156 41.691406 19.035156 C 41.589844 19.035156 41.496094 18.980469 41.453125 18.882812 C 41.050781 17.996094 39.9375 17.363281 38.691406 17.3125 C 37.4375 17.257812 36.28125 17.796875 35.804688 18.648438 C 35.734375 18.773438 35.574219 18.820312 35.449219 18.75 C 35.324219 18.679688 35.28125 18.523438 35.351562 18.398438 C 35.929688 17.363281 37.25 16.730469 38.710938 16.792969 C 40.175781 16.855469 41.4375 17.589844 41.925781 18.671875 Z M 53.328125 17.484375 C 51.863281 17.421875 50.546875 18.050781 49.964844 19.085938 C 49.898438 19.210938 49.941406 19.371094 50.066406 19.441406 C 50.191406 19.507812 50.351562 19.464844 50.421875 19.339844 C 50.898438 18.488281 52.058594 17.949219 53.308594 18 C 54.554688 18.054688 55.667969 18.6875 56.070312 19.574219 C 56.113281 19.671875 56.207031 19.726562 56.308594 19.726562 C 56.34375 19.726562 56.378906 19.71875 56.414062 19.703125 C 56.546875 19.644531 56.605469 19.492188 56.542969 19.359375 C 56.054688 18.28125 54.792969 17.542969 53.328125 17.484375 Z M 48.347656 20.617188 C 48.222656 20.546875 48.066406 20.589844 47.992188 20.714844 C 47.628906 21.347656 46.75 21.742188 45.808594 21.6875 C 44.867188 21.636719 44.035156 21.152344 43.738281 20.484375 C 43.683594 20.351562 43.527344 20.292969 43.398438 20.351562 C 43.265625 20.40625 43.207031 20.558594 43.261719 20.691406 C 43.640625 21.550781 44.628906 22.144531 45.777344 22.207031 C 45.84375 22.210938 45.910156 22.210938 45.976562 22.210938 C 47.046875 22.210938 48.003906 21.738281 48.445312 20.972656 C 48.515625 20.847656 48.472656 20.6875 48.347656 20.617188 Z M 70.855469 40.960938 C 69.863281 42.632812 68 43.457031 65.132812 43.457031 C 63.535156 43.457031 61.628906 43.203125 59.382812 42.695312 C 58.332031 42.460938 57.203125 42.167969 55.992188 41.816406 C 55.390625 42.238281 54.78125 42.644531 54.164062 43.039062 L 44.105469 74.847656 C 44.09375 74.890625 44.0625 74.925781 44.019531 74.949219 C 43.996094 74.960938 43.96875 74.96875 43.941406 74.96875 C 43.921875 74.96875 43.902344 74.964844 43.886719 74.957031 L 30.503906 70.53125 C 30.449219 70.515625 30.410156 70.476562 30.394531 70.425781 C 30.375 70.371094 30.382812 70.316406 30.414062 70.273438 C 30.507812 70.132812 32.765625 66.933594 39.773438 68.582031 L 47.082031 46.746094 C 45.878906 47.246094 44.667969 47.6875 43.460938 48.0625 C 43.441406 48.070312 43.425781 48.070312 43.410156 48.070312 C 43.378906 48.070312 43.351562 48.066406 43.328125 48.050781 C 41.023438 46.816406 38.769531 45.308594 36.632812 43.585938 L 9.617188 59.210938 C 9.589844 59.226562 9.558594 59.234375 9.527344 59.234375 C 9.511719 59.234375 9.5 59.230469 9.484375 59.226562 C 9.4375 59.214844 9.398438 59.1875 9.378906 59.144531 L 2.421875 46.925781 C 2.394531 46.878906 2.394531 46.824219 2.414062 46.773438 C 2.4375 46.722656 2.480469 46.6875 2.53125 46.671875 C 2.542969 46.671875 2.785156 46.613281 3.207031 46.613281 C 4.386719 46.613281 7.453125 47.109375 10.617188 51.667969 L 32.191406 39.519531 C 31.597656 38.90625 31.019531 38.273438 30.460938 37.628906 C 30.207031 37.648438 29.953125 37.664062 29.707031 37.679688 C 28.363281 37.761719 27.125 37.804688 25.984375 37.804688 C 25.796875 37.804688 25.609375 37.804688 25.425781 37.800781 C 25.355469 37.800781 25.285156 37.796875 25.210938 37.796875 C 25.101562 37.792969 24.988281 37.792969 24.878906 37.789062 C 24.800781 37.789062 24.71875 37.785156 24.640625 37.78125 C 24.542969 37.777344 24.441406 37.777344 24.347656 37.773438 C 24.269531 37.769531 24.191406 37.765625 24.117188 37.761719 C 24.011719 37.757812 23.910156 37.75 23.808594 37.746094 C 23.746094 37.742188 23.683594 37.738281 23.621094 37.734375 C 23.5 37.726562 23.378906 37.71875 23.261719 37.710938 C 23.222656 37.707031 23.183594 37.703125 23.144531 37.703125 C 22.792969 37.675781 22.457031 37.640625 22.132812 37.605469 C 22.128906 37.605469 22.128906 37.601562 22.125 37.601562 C 18.140625 37.128906 15.90625 35.824219 15.183594 33.585938 C 14.523438 31.554688 14.710938 29.523438 15.71875 27.710938 C 17.078125 25.257812 19.714844 23.628906 21.90625 22.632812 C 21.46875 21.085938 21.1875 19.578125 21.082031 18.140625 C 20.75 13.695312 22.109375 10.207031 25.011719 8.046875 C 27.542969 6.164062 30.277344 5.207031 33.140625 5.207031 C 40.222656 5.207031 46.011719 11.105469 46.867188 12.019531 C 47.753906 11.375 53.085938 7.691406 59.046875 7.691406 C 62.9375 7.691406 66.3125 9.230469 69.082031 12.261719 C 71.519531 14.929688 72.1875 18.613281 71.011719 22.914062 C 70.40625 25.132812 69.339844 27.4375 67.875 29.734375 C 69.453125 31.121094 71.007812 32.949219 71.636719 35.113281 C 72.21875 37.101562 71.945312 39.125 70.855469 40.960938 Z M 37.335938 36.566406 C 41.019531 36.089844 45.105469 35.425781 49.476562 34.59375 C 49.535156 34.582031 49.597656 34.601562 49.640625 34.648438 C 50.503906 35.640625 51.566406 35.792969 52.792969 35.96875 C 52.914062 35.984375 53.039062 36.003906 53.160156 36.023438 C 54.296875 36.191406 56.492188 36.261719 56.683594 35.300781 C 56.699219 35.191406 56.664062 35.089844 56.582031 35.003906 C 56.242188 34.644531 55.226562 34.613281 54.847656 34.628906 C 54.847656 34.628906 54.839844 34.628906 54.839844 34.632812 C 54.835938 34.632812 54.832031 34.632812 54.832031 34.632812 C 54.738281 34.632812 54.664062 34.558594 54.65625 34.46875 C 54.652344 34.371094 54.726562 34.289062 54.820312 34.285156 C 54.824219 34.289062 54.828125 34.285156 54.832031 34.285156 C 56.261719 34.214844 58.570312 33.808594 58.730469 33.023438 C 58.777344 32.820312 58.714844 32.722656 58.664062 32.664062 C 58.242188 32.191406 56.503906 32.378906 55.570312 32.480469 C 55.355469 32.503906 55.175781 32.523438 55.039062 32.53125 C 54.953125 32.539062 54.878906 32.484375 54.859375 32.40625 C 54.835938 32.324219 54.875 32.242188 54.953125 32.203125 C 55.289062 32.042969 55.652344 31.882812 56.003906 31.730469 C 57.386719 31.121094 58.953125 30.429688 58.832031 29.75 C 58.792969 29.601562 58.6875 29.484375 58.523438 29.402344 C 57.628906 28.957031 55.289062 29.671875 54.042969 30.164062 C 53.960938 30.195312 53.867188 30.160156 53.824219 30.082031 C 53.785156 30 53.8125 29.902344 53.890625 29.855469 C 54.953125 29.199219 56.628906 27.9375 56.59375 27.339844 C 56.589844 27.273438 56.5625 27.179688 56.378906 27.09375 C 55.992188 26.875 53.699219 27.929688 51.703125 29.074219 C 51.636719 29.109375 51.558594 29.101562 51.5 29.054688 C 51.445312 29.003906 51.425781 28.925781 51.453125 28.859375 C 51.683594 28.289062 52.207031 26.679688 51.886719 26.070312 C 51.824219 25.953125 51.738281 25.886719 51.617188 25.859375 C 51.441406 25.820312 51.160156 25.917969 50.851562 26.128906 C 49.867188 26.792969 48.667969 28.476562 48.378906 30.285156 C 48.367188 30.359375 48.3125 30.414062 48.238281 30.429688 C 44.546875 31.125 41.050781 31.699219 37.855469 32.140625 C 31.34375 33.03125 26.351562 33.328125 23.019531 33.015625 C 23.015625 33.015625 23.011719 33.011719 23.003906 33.011719 L 23.003906 33.015625 C 20.632812 32.792969 19.871094 32.320312 19.664062 32.144531 C 19.640625 32.121094 19.621094 32.09375 19.609375 32.0625 C 19.382812 31.296875 19.449219 30.632812 19.8125 29.972656 C 20.226562 29.226562 20.96875 28.5625 21.828125 27.996094 C 21.097656 26.742188 20.417969 25.464844 19.796875 24.148438 C 18.3125 25.078125 16.894531 26.304688 16.019531 27.878906 C 15.0625 29.605469 14.886719 31.542969 15.511719 33.480469 C 16.191406 35.582031 18.339844 36.8125 22.183594 37.261719 C 23.296875 37.390625 24.574219 37.457031 25.984375 37.457031 C 29.011719 37.457031 32.722656 37.167969 37.335938 36.566406 Z M 20.117188 30.140625 C 19.804688 30.707031 19.746094 31.253906 19.929688 31.910156 C 20.132812 32.0625 20.871094 32.472656 23.050781 32.671875 C 23.324219 32.699219 23.609375 32.71875 23.90625 32.738281 C 24.484375 32.769531 25.140625 32.789062 25.886719 32.789062 C 26.167969 32.789062 26.460938 32.785156 26.757812 32.78125 C 25.554688 30.972656 24.523438 29.148438 23.683594 27.347656 C 22.246094 28.03125 20.753906 28.984375 20.117188 30.140625 Z M 32.421875 31.074219 C 32.382812 31.148438 32.296875 31.1875 32.21875 31.160156 C 32.085938 31.121094 31.914062 31.0625 31.710938 30.992188 C 30.820312 30.691406 29.167969 30.125 28.652344 30.492188 C 28.59375 30.535156 28.507812 30.617188 28.511719 30.824219 C 28.492188 31.4375 29.75 32.109375 30.957031 32.5625 C 33.007812 32.398438 35.292969 32.140625 37.808594 31.796875 C 38.84375 31.65625 39.910156 31.496094 41.003906 31.328125 C 40.445312 31.089844 39.882812 30.851562 39.316406 30.605469 C 39.25 30.578125 39.207031 30.507812 39.210938 30.4375 C 39.332031 28.609375 38.53125 26.703125 37.722656 25.835938 C 37.464844 25.5625 37.214844 25.410156 37.035156 25.40625 C 36.910156 25.40625 36.8125 25.453125 36.726562 25.550781 C 36.277344 26.078125 36.429688 27.761719 36.527344 28.367188 C 36.539062 28.441406 36.503906 28.511719 36.4375 28.546875 C 36.375 28.582031 36.292969 28.570312 36.238281 28.523438 C 34.542969 26.96875 32.542969 25.429688 32.132812 25.558594 C 31.921875 25.605469 31.875 25.691406 31.855469 25.753906 C 31.6875 26.328125 33.039062 27.929688 33.933594 28.804688 C 33.996094 28.867188 34.003906 28.96875 33.945312 29.035156 C 33.886719 29.105469 33.785156 29.121094 33.710938 29.070312 C 32.609375 28.316406 30.484375 27.105469 29.515625 27.339844 C 29.332031 27.382812 29.207031 27.476562 29.128906 27.625 C 28.867188 28.246094 30.242188 29.265625 31.453125 30.164062 C 31.761719 30.394531 32.082031 30.628906 32.375 30.859375 C 32.441406 30.910156 32.460938 31.003906 32.421875 31.074219 Z M 33.082031 45.238281 C 32.640625 44.804688 32.207031 44.363281 31.78125 43.90625 C 31.019531 43.078125 30.261719 42.246094 29.460938 41.453125 L 10.648438 52.046875 C 10.570312 52.089844 10.46875 52.066406 10.417969 51.992188 C 7.316406 47.449219 4.34375 46.957031 3.207031 46.957031 C 3.0625 46.957031 2.941406 46.964844 2.847656 46.976562 L 9.59375 58.824219 Z M 55.546875 41.6875 C 53.449219 41.070312 51.109375 40.285156 48.46875 39.316406 C 46.132812 38.460938 43.636719 37.480469 41.019531 36.398438 C 39.769531 36.585938 38.554688 36.757812 37.378906 36.910156 C 34.992188 37.21875 32.847656 37.449219 30.910156 37.597656 C 34.480469 41.648438 38.800781 45.222656 43.425781 47.710938 C 44.703125 47.3125 45.972656 46.839844 47.226562 46.304688 L 48.132812 43.597656 C 48.164062 43.507812 48.261719 43.457031 48.355469 43.488281 C 48.445312 43.515625 48.496094 43.613281 48.464844 43.707031 L 40.050781 68.839844 C 40.023438 68.925781 39.933594 68.976562 39.847656 68.953125 C 33.949219 67.519531 31.457031 69.632812 30.851562 70.285156 L 43.828125 74.574219 L 54.125 42.019531 C 54.152344 41.925781 54.25 41.878906 54.339844 41.90625 C 54.433594 41.933594 54.484375 42.03125 54.453125 42.121094 L 54.335938 42.5 C 54.742188 42.234375 55.148438 41.964844 55.546875 41.6875 Z M 71.304688 35.207031 C 69.941406 30.53125 64.089844 27.449219 63.425781 27.109375 C 63.34375 27.066406 63.308594 26.964844 63.351562 26.878906 C 63.394531 26.792969 63.5 26.761719 63.585938 26.804688 C 63.941406 26.984375 65.761719 27.941406 67.613281 29.507812 C 69.019531 27.292969 70.074219 25.039062 70.675781 22.824219 C 71.816406 18.644531 71.179688 15.070312 68.824219 12.492188 C 66.125 9.535156 62.835938 8.035156 59.046875 8.035156 C 52.664062 8.035156 47.007812 12.34375 46.949219 12.386719 C 46.878906 12.445312 46.773438 12.433594 46.714844 12.367188 C 46.652344 12.296875 40.621094 5.554688 33.140625 5.554688 C 30.355469 5.554688 27.6875 6.488281 25.21875 8.324219 C 22.417969 10.410156 21.105469 13.792969 21.425781 18.117188 C 21.773438 22.757812 23.898438 27.925781 27.175781 32.773438 C 28.105469 32.75 29.105469 32.699219 30.179688 32.621094 C 29.179688 32.183594 28.144531 31.554688 28.164062 30.816406 C 28.164062 30.488281 28.320312 30.304688 28.453125 30.210938 C 28.988281 29.828125 30.125 30.105469 31.324219 30.5 C 31.296875 30.480469 31.273438 30.460938 31.25 30.441406 C 29.804688 29.371094 28.441406 28.363281 28.816406 27.476562 C 28.949219 27.226562 29.15625 27.070312 29.433594 27.003906 C 30.296875 26.792969 31.75 27.484375 32.78125 28.078125 C 32.109375 27.296875 31.351562 26.246094 31.523438 25.65625 C 31.566406 25.5 31.695312 25.300781 32.046875 25.226562 C 32.730469 25.015625 35.03125 26.96875 36.125 27.949219 C 36.046875 27.222656 35.984375 25.882812 36.464844 25.328125 C 36.613281 25.152344 36.820312 25.058594 37.035156 25.0625 C 37.320312 25.0625 37.644531 25.25 37.976562 25.601562 C 38.820312 26.5 39.648438 28.449219 39.566406 30.335938 C 40.269531 30.640625 40.960938 30.9375 41.652344 31.226562 C 43.699219 30.902344 45.839844 30.527344 48.054688 30.113281 C 48.394531 28.253906 49.636719 26.535156 50.65625 25.839844 C 51.058594 25.570312 51.414062 25.460938 51.691406 25.523438 C 51.910156 25.570312 52.085938 25.707031 52.191406 25.910156 C 52.535156 26.558594 52.175781 27.847656 51.941406 28.542969 C 53.226562 27.828125 55.902344 26.429688 56.535156 26.789062 C 56.847656 26.929688 56.929688 27.15625 56.9375 27.316406 C 56.976562 27.929688 56 28.789062 55.171875 29.402344 C 56.3125 29.050781 57.878906 28.695312 58.679688 29.09375 C 58.933594 29.21875 59.101562 29.414062 59.171875 29.671875 C 59.34375 30.632812 57.789062 31.320312 56.144531 32.046875 C 56.117188 32.058594 56.085938 32.070312 56.058594 32.082031 C 57.3125 31.964844 58.484375 31.945312 58.921875 32.433594 C 59.03125 32.554688 59.144531 32.769531 59.066406 33.097656 C 58.910156 33.894531 57.503906 34.285156 56.351562 34.46875 C 56.542969 34.539062 56.710938 34.636719 56.835938 34.765625 C 56.988281 34.925781 57.054688 35.128906 57.027344 35.351562 C 56.898438 36.011719 56.207031 36.296875 55.4375 36.40625 C 57.445312 37.039062 59.101562 37.484375 60.46875 37.796875 C 61.972656 36.449219 63.363281 35.023438 64.609375 33.554688 C 63.375 32.46875 61.96875 31.613281 61.300781 31.269531 C 61.214844 31.222656 61.179688 31.121094 61.222656 31.035156 C 61.269531 30.949219 61.371094 30.917969 61.457031 30.960938 C 62.707031 31.601562 66.433594 33.980469 67.140625 36.417969 C 67.351562 37.140625 67.265625 37.804688 66.875 38.5 C 66.859375 38.527344 66.832031 38.550781 66.804688 38.566406 C 66.382812 38.789062 64.011719 39.5625 54.488281 36.464844 C 53.824219 36.464844 53.25 36.382812 53.109375 36.363281 C 52.988281 36.34375 52.867188 36.328125 52.746094 36.308594 C 51.53125 36.136719 50.382812 35.972656 49.445312 34.949219 C 46.734375 35.464844 44.136719 35.914062 41.675781 36.296875 C 44.101562 37.292969 46.414062 38.195312 48.589844 38.992188 C 52.953125 40.59375 56.507812 41.695312 59.460938 42.359375 C 65.570312 43.738281 69.097656 43.238281 70.554688 40.785156 C 71.597656 39.035156 71.855469 37.105469 71.304688 35.207031 Z M 66.597656 38.285156 C 66.921875 37.683594 66.988281 37.136719 66.808594 36.515625 C 66.53125 35.5625 65.761719 34.617188 64.867188 33.785156 C 63.773438 35.070312 62.566406 36.335938 61.253906 37.558594 C 61.132812 37.671875 61.011719 37.78125 60.890625 37.894531 C 64.992188 38.785156 66.304688 38.410156 66.597656 38.285156 Z M 31.199219 18.5625 L 30.265625 19.648438 C 30.171875 19.757812 30.1875 19.921875 30.296875 20.015625 C 30.34375 20.058594 30.402344 20.078125 30.464844 20.078125 C 30.539062 20.078125 30.609375 20.046875 30.660156 19.988281 L 31.597656 18.898438 C 31.691406 18.789062 31.675781 18.625 31.566406 18.53125 C 31.457031 18.4375 31.292969 18.453125 31.199219 18.5625 Z M 32.800781 18.511719 L 31.867188 19.601562 C 31.773438 19.710938 31.789062 19.871094 31.898438 19.964844 C 31.945312 20.007812 32.003906 20.027344 32.066406 20.027344 C 32.140625 20.027344 32.210938 19.996094 32.261719 19.9375 L 33.199219 18.847656 C 33.292969 18.738281 33.277344 18.574219 33.167969 18.484375 C 33.058594 18.390625 32.894531 18.402344 32.800781 18.511719 Z M 59.621094 19.992188 L 58.6875 21.082031 C 58.59375 21.191406 58.605469 21.355469 58.714844 21.449219 C 58.761719 21.492188 58.824219 21.511719 58.882812 21.511719 C 58.957031 21.511719 59.03125 21.480469 59.082031 21.421875 L 60.015625 20.332031 C 60.109375 20.222656 60.097656 20.058594 59.988281 19.964844 C 59.878906 19.871094 59.714844 19.886719 59.621094 19.992188 Z M 61.222656 19.945312 L 60.289062 21.035156 C 60.195312 21.144531 60.207031 21.304688 60.316406 21.398438 C 60.363281 21.441406 60.425781 21.460938 60.484375 21.460938 C 60.558594 21.460938 60.632812 21.429688 60.683594 21.371094 L 61.617188 20.28125 C 61.710938 20.171875 61.699219 20.007812 61.589844 19.917969 C 61.480469 19.824219 61.316406 19.835938 61.222656 19.945312 Z M 61.222656 19.945312 " fill-opacity="1" fill-rule="nonzero"/></g></svg>