<svg xmlns="http://www.w3.org/2000/svg" xmlns:xlink="http://www.w3.org/1999/xlink" width="181" zoomAndPan="magnify" viewBox="0 0 135.75 135.749996" height="181" preserveAspectRatio="xMidYMid meet" version="1.0"><defs><clipPath id="d013243810"><path d="M 8.570312 0 L 127.070312 0 L 127.070312 135.5 L 8.570312 135.5 Z M 8.570312 0 " clip-rule="nonzero"/></clipPath></defs><path fill="#f1ebc9" d="M 13.242188 19.175781 L 13.242188 116.574219 C 13.242188 124.597656 19.761719 131.125 27.777344 131.125 L 27.976562 131.125 C 23.878906 127.605469 21.277344 122.390625 21.277344 116.574219 L 21.277344 19.175781 C 21.277344 13.363281 23.878906 8.148438 27.976562 4.628906 L 27.777344 4.628906 C 19.761719 4.628906 13.242188 11.152344 13.242188 19.175781 " fill-opacity="1" fill-rule="nonzero"/><path fill="#f1ebc9" d="M 84.363281 101.488281 C 83.941406 101.855469 83.402344 102.054688 82.847656 102.054688 L 61.492188 102.054688 C 61.386719 102.054688 61.28125 102.042969 61.175781 102.03125 C 61.148438 102.027344 61.121094 102.023438 61.089844 102.015625 C 61.003906 102 60.921875 101.980469 60.835938 101.957031 C 60.820312 101.953125 60.800781 101.949219 60.785156 101.941406 C 60.699219 101.914062 60.617188 101.882812 60.535156 101.847656 C 60.523438 101.84375 60.515625 101.835938 60.503906 101.832031 C 60.457031 101.808594 60.414062 101.78125 60.367188 101.753906 C 60.3125 101.726562 60.257812 101.695312 60.207031 101.660156 C 60.167969 101.632812 60.128906 101.601562 60.085938 101.570312 C 60.039062 101.53125 59.988281 101.496094 59.941406 101.453125 C 59.90625 101.421875 59.871094 101.382812 59.835938 101.347656 C 59.792969 101.300781 59.75 101.257812 59.710938 101.210938 C 59.679688 101.167969 59.648438 101.128906 59.617188 101.085938 C 59.582031 101.035156 59.546875 100.984375 59.515625 100.933594 C 59.488281 100.886719 59.464844 100.84375 59.441406 100.796875 C 59.414062 100.742188 59.386719 100.683594 59.359375 100.625 C 59.351562 100.597656 59.335938 100.578125 59.328125 100.554688 C 59.320312 100.53125 59.316406 100.503906 59.308594 100.480469 C 59.285156 100.421875 59.269531 100.359375 59.253906 100.296875 C 59.242188 100.246094 59.230469 100.195312 59.222656 100.144531 C 59.210938 100.085938 59.203125 100.027344 59.199219 99.964844 C 59.191406 99.910156 59.1875 99.855469 59.1875 99.804688 C 59.183594 99.78125 59.179688 99.761719 59.179688 99.742188 L 59.179688 38.167969 C 59.179688 38.101562 59.195312 38.039062 59.199219 37.976562 C 59.207031 37.902344 59.207031 37.828125 59.222656 37.757812 C 59.238281 37.671875 59.265625 37.585938 59.289062 37.503906 C 59.308594 37.441406 59.320312 37.382812 59.34375 37.324219 C 59.378906 37.234375 59.425781 37.152344 59.472656 37.066406 C 59.5 37.019531 59.519531 36.96875 59.550781 36.921875 C 59.609375 36.824219 59.683594 36.738281 59.757812 36.652344 C 59.78125 36.625 59.796875 36.59375 59.824219 36.570312 C 59.824219 36.566406 59.828125 36.566406 59.828125 36.5625 C 59.933594 36.457031 60.050781 36.355469 60.175781 36.269531 C 60.203125 36.25 60.234375 36.234375 60.265625 36.21875 C 60.363281 36.15625 60.464844 36.097656 60.570312 36.050781 C 60.621094 36.027344 60.675781 36.015625 60.726562 35.996094 C 60.816406 35.964844 60.90625 35.933594 61 35.910156 C 61.070312 35.898438 61.140625 35.894531 61.207031 35.886719 C 61.28125 35.875 61.351562 35.859375 61.425781 35.855469 C 61.4375 35.855469 61.449219 35.859375 61.457031 35.859375 C 61.46875 35.859375 61.480469 35.855469 61.492188 35.855469 L 82.847656 35.855469 C 84.097656 35.855469 85.121094 36.847656 85.15625 38.097656 C 85.890625 61.792969 105.644531 79.179688 105.84375 79.351562 C 105.855469 79.363281 105.863281 79.375 105.878906 79.386719 C 105.925781 79.429688 105.972656 79.480469 106.015625 79.527344 C 106.050781 79.566406 106.085938 79.601562 106.117188 79.640625 C 106.160156 79.691406 106.195312 79.746094 106.234375 79.796875 C 106.261719 79.839844 106.292969 79.882812 106.320312 79.925781 C 106.351562 79.980469 106.378906 80.039062 106.40625 80.097656 C 106.429688 80.144531 106.453125 80.191406 106.472656 80.242188 C 106.480469 80.261719 106.492188 80.273438 106.496094 80.292969 C 106.515625 80.335938 106.519531 80.382812 106.535156 80.425781 C 106.550781 80.476562 106.566406 80.527344 106.578125 80.578125 C 106.59375 80.640625 106.605469 80.707031 106.613281 80.769531 C 106.621094 80.820312 106.628906 80.871094 106.632812 80.917969 C 106.636719 80.984375 106.636719 81.050781 106.636719 81.117188 C 106.636719 81.167969 106.636719 81.21875 106.632812 81.265625 C 106.628906 81.335938 106.621094 81.402344 106.609375 81.46875 C 106.601562 81.515625 106.59375 81.5625 106.582031 81.613281 C 106.566406 81.679688 106.546875 81.746094 106.523438 81.816406 C 106.515625 81.847656 106.507812 81.878906 106.496094 81.910156 C 106.492188 81.921875 106.484375 81.933594 106.480469 81.945312 C 106.453125 82.015625 106.421875 82.078125 106.390625 82.144531 C 106.367188 82.183594 106.351562 82.226562 106.328125 82.265625 C 106.292969 82.324219 106.253906 82.378906 106.214844 82.4375 C 106.183594 82.476562 106.160156 82.515625 106.128906 82.554688 C 106.085938 82.605469 106.042969 82.648438 105.996094 82.695312 C 105.960938 82.738281 105.925781 82.773438 105.882812 82.8125 C 105.871094 82.824219 105.859375 82.839844 105.847656 82.851562 Z M 73.066406 122.542969 C 70.871094 122.542969 69.09375 120.761719 69.09375 118.566406 C 69.09375 116.371094 70.871094 114.59375 73.066406 114.59375 C 75.257812 114.59375 77.035156 116.371094 77.035156 118.566406 C 77.035156 120.761719 75.257812 122.542969 73.066406 122.542969 Z M 73.066406 15.203125 C 75.257812 15.203125 77.035156 16.984375 77.035156 19.179688 C 77.035156 21.375 75.257812 23.15625 73.066406 23.15625 C 70.871094 23.15625 69.09375 21.375 69.09375 19.179688 C 69.09375 16.984375 70.871094 15.203125 73.066406 15.203125 Z M 122.398438 19.175781 C 122.398438 11.152344 115.875 4.628906 107.863281 4.628906 L 40.433594 4.628906 C 32.417969 4.628906 25.898438 11.152344 25.898438 19.175781 L 25.898438 116.574219 C 25.898438 124.597656 32.417969 131.125 40.433594 131.125 L 107.863281 131.125 C 115.875 131.125 122.398438 124.597656 122.398438 116.574219 L 122.398438 19.175781 " fill-opacity="1" fill-rule="nonzero"/><path fill="#fffffc" d="M 64.015625 40.480469 C 64.820312 47.566406 68.425781 68.460938 83.550781 78.789062 L 98.714844 78.789062 C 92.675781 72.253906 82.015625 58.351562 80.660156 40.480469 L 64.015625 40.480469 " fill-opacity="1" fill-rule="nonzero"/><path fill="#fffffc" d="M 81.988281 97.429688 L 98.140625 83.414062 L 83.714844 83.414062 L 73.449219 92.375 L 67.65625 97.429688 L 81.988281 97.429688 " fill-opacity="1" fill-rule="nonzero"/><path fill="#fffffc" d="M 63.804688 60.484375 L 63.804688 94.65625 L 79.039062 81.359375 C 75.257812 78.542969 68.417969 72.167969 63.804688 60.484375 " fill-opacity="1" fill-rule="nonzero"/><g clip-path="url(#d013243810)"><path fill="#140d0d" d="M 107.863281 131.125 L 40.433594 131.125 C 32.417969 131.125 25.898438 124.597656 25.898438 116.574219 L 25.898438 19.175781 C 25.898438 11.152344 32.417969 4.628906 40.433594 4.628906 L 107.863281 4.628906 C 115.875 4.628906 122.398438 11.152344 122.398438 19.175781 L 122.398438 116.574219 C 122.398438 124.597656 115.875 131.125 107.863281 131.125 Z M 27.777344 131.125 C 19.761719 131.125 13.242188 124.597656 13.242188 116.574219 L 13.242188 19.175781 C 13.242188 11.152344 19.761719 4.628906 27.777344 4.628906 L 27.976562 4.628906 C 23.878906 8.148438 21.277344 13.359375 21.277344 19.175781 L 21.277344 116.574219 C 21.277344 122.390625 23.878906 127.605469 27.976562 131.125 Z M 127.019531 116.574219 L 127.019531 19.175781 C 127.019531 8.601562 118.425781 0 107.863281 0 L 27.777344 0 C 17.214844 0 8.621094 8.601562 8.621094 19.175781 L 8.621094 116.574219 C 8.621094 127.148438 17.214844 135.75 27.777344 135.75 L 107.863281 135.75 C 118.425781 135.75 127.019531 127.148438 127.019531 116.574219 " fill-opacity="1" fill-rule="nonzero"/></g><path fill="#140d0d" d="M 83.550781 78.789062 C 68.425781 68.460938 64.820312 47.566406 64.015625 40.480469 L 80.660156 40.480469 C 82.015625 58.351562 92.675781 72.253906 98.714844 78.789062 Z M 81.988281 97.429688 L 67.65625 97.429688 L 73.449219 92.375 L 83.714844 83.414062 L 98.140625 83.414062 Z M 79.039062 81.359375 L 63.804688 94.65625 L 63.804688 60.484375 C 68.417969 72.167969 75.257812 78.542969 79.039062 81.359375 Z M 106.613281 80.769531 C 106.605469 80.707031 106.59375 80.640625 106.578125 80.578125 C 106.566406 80.527344 106.550781 80.472656 106.535156 80.425781 C 106.523438 80.382812 106.515625 80.335938 106.496094 80.292969 C 106.492188 80.273438 106.480469 80.261719 106.472656 80.242188 C 106.453125 80.191406 106.429688 80.144531 106.40625 80.097656 C 106.378906 80.039062 106.351562 79.980469 106.320312 79.925781 C 106.292969 79.882812 106.261719 79.839844 106.234375 79.796875 C 106.195312 79.746094 106.160156 79.691406 106.117188 79.640625 C 106.085938 79.601562 106.050781 79.566406 106.015625 79.527344 C 105.972656 79.480469 105.925781 79.429688 105.878906 79.386719 C 105.863281 79.375 105.855469 79.363281 105.84375 79.351562 C 105.644531 79.179688 85.890625 61.792969 85.15625 38.097656 C 85.121094 36.847656 84.097656 35.855469 82.847656 35.855469 L 61.492188 35.855469 C 61.480469 35.855469 61.46875 35.859375 61.457031 35.859375 C 61.449219 35.859375 61.4375 35.855469 61.429688 35.855469 C 61.351562 35.859375 61.28125 35.875 61.207031 35.886719 C 61.140625 35.894531 61.070312 35.894531 61 35.910156 C 60.90625 35.933594 60.816406 35.964844 60.726562 35.996094 C 60.675781 36.015625 60.621094 36.027344 60.570312 36.050781 C 60.464844 36.097656 60.363281 36.15625 60.265625 36.21875 C 60.238281 36.238281 60.203125 36.25 60.175781 36.269531 C 60.050781 36.355469 59.933594 36.453125 59.828125 36.5625 C 59.828125 36.566406 59.824219 36.566406 59.824219 36.570312 C 59.796875 36.59375 59.78125 36.625 59.757812 36.652344 C 59.683594 36.738281 59.609375 36.824219 59.550781 36.917969 C 59.519531 36.964844 59.5 37.019531 59.472656 37.066406 C 59.425781 37.152344 59.378906 37.234375 59.34375 37.324219 C 59.320312 37.382812 59.308594 37.441406 59.289062 37.503906 C 59.265625 37.585938 59.238281 37.671875 59.222656 37.757812 C 59.210938 37.828125 59.207031 37.902344 59.199219 37.972656 C 59.195312 38.039062 59.179688 38.101562 59.179688 38.167969 L 59.179688 99.742188 C 59.179688 99.761719 59.183594 99.78125 59.1875 99.804688 C 59.1875 99.859375 59.191406 99.914062 59.199219 99.964844 C 59.203125 100.027344 59.210938 100.085938 59.222656 100.144531 C 59.230469 100.195312 59.242188 100.246094 59.253906 100.296875 C 59.269531 100.359375 59.285156 100.421875 59.308594 100.480469 C 59.316406 100.503906 59.320312 100.53125 59.328125 100.554688 C 59.335938 100.578125 59.351562 100.597656 59.359375 100.625 C 59.386719 100.683594 59.414062 100.738281 59.441406 100.796875 C 59.464844 100.84375 59.488281 100.886719 59.515625 100.933594 C 59.546875 100.984375 59.582031 101.035156 59.617188 101.085938 C 59.648438 101.128906 59.675781 101.167969 59.710938 101.210938 C 59.75 101.257812 59.792969 101.300781 59.835938 101.347656 C 59.871094 101.382812 59.90625 101.417969 59.941406 101.453125 C 59.988281 101.496094 60.039062 101.53125 60.085938 101.570312 C 60.128906 101.601562 60.167969 101.632812 60.207031 101.660156 C 60.257812 101.695312 60.3125 101.726562 60.367188 101.753906 C 60.414062 101.78125 60.457031 101.808594 60.503906 101.832031 C 60.515625 101.835938 60.523438 101.84375 60.535156 101.847656 C 60.617188 101.882812 60.699219 101.914062 60.785156 101.941406 C 60.800781 101.949219 60.816406 101.953125 60.835938 101.957031 C 60.921875 101.980469 61.003906 102 61.09375 102.015625 C 61.121094 102.023438 61.148438 102.027344 61.175781 102.03125 C 61.28125 102.042969 61.386719 102.054688 61.492188 102.054688 L 82.847656 102.054688 C 83.40625 102.054688 83.941406 101.855469 84.363281 101.488281 L 105.847656 82.851562 C 105.859375 82.839844 105.871094 82.824219 105.882812 82.8125 C 105.925781 82.773438 105.960938 82.734375 106 82.695312 C 106.042969 82.648438 106.085938 82.605469 106.128906 82.554688 C 106.160156 82.515625 106.183594 82.476562 106.214844 82.4375 C 106.253906 82.378906 106.292969 82.324219 106.328125 82.265625 C 106.351562 82.222656 106.371094 82.183594 106.390625 82.144531 C 106.421875 82.078125 106.453125 82.015625 106.480469 81.945312 C 106.484375 81.933594 106.492188 81.921875 106.496094 81.910156 C 106.507812 81.878906 106.515625 81.847656 106.527344 81.816406 C 106.546875 81.746094 106.566406 81.679688 106.582031 81.613281 C 106.59375 81.5625 106.601562 81.515625 106.609375 81.464844 C 106.621094 81.402344 106.628906 81.335938 106.632812 81.265625 C 106.636719 81.21875 106.636719 81.167969 106.636719 81.117188 C 106.636719 81.050781 106.636719 80.984375 106.632812 80.917969 C 106.628906 80.871094 106.621094 80.820312 106.613281 80.769531 " fill-opacity="1" fill-rule="nonzero"/><path fill="#140d0d" d="M 73.066406 114.59375 C 70.871094 114.59375 69.09375 116.371094 69.09375 118.566406 C 69.09375 120.761719 70.871094 122.542969 73.066406 122.542969 C 75.257812 122.542969 77.039062 120.761719 77.039062 118.566406 C 77.039062 116.371094 75.257812 114.59375 73.066406 114.59375 " fill-opacity="1" fill-rule="nonzero"/><path fill="#140d0d" d="M 73.066406 23.152344 C 75.257812 23.152344 77.039062 21.375 77.039062 19.179688 C 77.039062 16.984375 75.257812 15.203125 73.066406 15.203125 C 70.871094 15.203125 69.09375 16.984375 69.09375 19.179688 C 69.09375 21.375 70.871094 23.152344 73.066406 23.152344 " fill-opacity="1" fill-rule="nonzero"/></svg>