<svg xmlns="http://www.w3.org/2000/svg" xmlns:xlink="http://www.w3.org/1999/xlink" width="100" zoomAndPan="magnify" viewBox="0 0 75 74.999997" height="100" preserveAspectRatio="xMidYMid meet" version="1.0"><path fill="#f1ebc8" d="M 0.515625 9.28125 L -0.304688 9.28125 C -0.828125 9.273438 -1.257812 9.699219 -1.257812 10.230469 C -1.257812 10.757812 -0.828125 11.183594 -0.300781 11.175781 L 0.515625 11.175781 Z M 71.410156 9.238281 C 71.210938 9.238281 71.019531 9.242188 70.832031 9.246094 C 70.632812 9.246094 70.433594 9.246094 70.238281 9.246094 L 70.238281 11.140625 C 70.441406 11.140625 70.640625 11.136719 70.84375 11.136719 C 71.613281 11.128906 72.308594 11.125 72.90625 11.253906 C 73.175781 11.3125 73.390625 11.394531 73.539062 11.496094 C 73.726562 11.621094 73.894531 11.84375 73.972656 12.09375 C 74.054688 12.339844 74.078125 12.6875 74.078125 13.113281 C 74.078125 13.609375 74.074219 14.117188 74.078125 14.636719 C 74.101562 16.953125 74.109375 19.265625 74.101562 21.582031 C 74.101562 22.714844 74.09375 23.84375 74.085938 24.976562 C 74.082031 25.394531 74.042969 25.734375 73.949219 25.972656 C 73.847656 26.21875 73.652344 26.480469 73.390625 26.71875 C 72.609375 27.425781 71.472656 27.84375 70.238281 28.226562 C 67.351562 29.128906 64.40625 29.886719 61.445312 30.644531 C 55.558594 32.160156 49.671875 33.671875 43.777344 35.148438 C 41.988281 35.597656 40.1875 36.046875 38.394531 36.570312 C 37.574219 36.8125 36.628906 37.09375 35.785156 37.75 C 35.398438 38.050781 35.035156 38.433594 34.78125 38.933594 C 34.441406 39.601562 34.390625 40.273438 34.363281 40.828125 C 34.339844 41.414062 34.34375 41.980469 34.34375 42.523438 L 34.351562 48.257812 L 36.238281 48.257812 L 36.230469 42.519531 C 36.230469 41.964844 36.226562 41.429688 36.25 40.914062 C 36.269531 40.4375 36.332031 40.046875 36.460938 39.792969 C 36.554688 39.605469 36.722656 39.414062 36.941406 39.242188 C 37.429688 38.863281 38.128906 38.621094 38.921875 38.386719 C 40.667969 37.878906 42.445312 37.433594 44.234375 36.984375 C 50.132812 35.503906 56.023438 33.992188 61.914062 32.480469 C 64.875 31.71875 67.851562 30.953125 70.800781 30.035156 C 72.066406 29.636719 73.492188 29.175781 74.65625 28.121094 C 75.066406 27.746094 75.457031 27.277344 75.695312 26.679688 C 75.941406 26.070312 75.96875 25.484375 75.96875 24.992188 C 75.980469 23.855469 75.988281 22.71875 75.988281 21.585938 C 75.992188 19.265625 75.984375 16.941406 75.964844 14.617188 C 75.957031 14.125 75.964844 13.625 75.964844 13.109375 C 75.960938 12.648438 75.960938 12.097656 75.765625 11.5 C 75.558594 10.875 75.160156 10.308594 74.589844 9.925781 C 74.160156 9.636719 73.710938 9.496094 73.304688 9.40625 C 72.640625 9.261719 72.003906 9.238281 71.410156 9.238281 " fill-opacity="1" fill-rule="nonzero"/><path fill="#f1ebc8" d="M 67.125 4.871094 L 67.125 15.414062 L 67.605469 15.414062 C 68.445312 15.414062 69.125 14.734375 69.125 13.886719 L 69.125 6.398438 C 69.125 5.550781 68.445312 4.871094 67.605469 4.871094 Z M 65.394531 4.871094 C 64.550781 4.871094 63.871094 5.550781 63.871094 6.398438 L 63.871094 13.886719 C 63.871094 14.734375 64.550781 15.414062 65.394531 15.414062 L 66.011719 15.414062 L 66.011719 4.871094 L 65.394531 4.871094 " fill-opacity="1" fill-rule="nonzero"/><path fill="#f1ebc8" d="M 4.742188 4.871094 L 4.742188 15.414062 L 5.359375 15.414062 C 6.203125 15.414062 6.882812 14.734375 6.882812 13.886719 L 6.882812 6.398438 C 6.882812 5.550781 6.203125 4.871094 5.359375 4.871094 Z M 3.148438 4.871094 C 2.304688 4.871094 1.628906 5.550781 1.628906 6.398438 L 1.628906 13.886719 C 1.628906 14.734375 2.304688 15.414062 3.148438 15.414062 L 3.628906 15.414062 L 3.628906 4.871094 L 3.148438 4.871094 " fill-opacity="1" fill-rule="nonzero"/><path fill="#f1ebc8" d="M 27.472656 1.90625 C 30.015625 1.90625 32.558594 1.917969 35.101562 1.941406 C 32.6875 2.078125 30.273438 2.191406 27.859375 2.285156 C 25.660156 2.367188 23.460938 2.433594 21.261719 2.511719 C 18.847656 2.59375 16.429688 2.695312 14.03125 2.980469 C 12.398438 3.175781 10.703125 3.488281 9.410156 4.5 C 8.609375 5.125 8.019531 5.976562 7.546875 6.871094 C 7.332031 7.273438 7.140625 7.691406 6.972656 8.113281 C 6.972656 7.183594 6.984375 6.25 6.953125 5.320312 C 6.9375 4.792969 6.90625 4.253906 7.035156 3.742188 C 7.152344 3.273438 7.398438 2.835938 7.75 2.511719 C 8.078125 2.207031 8.496094 1.996094 8.9375 1.933594 C 9.132812 1.910156 9.328125 1.910156 9.527344 1.910156 C 11.476562 1.921875 13.425781 1.90625 15.378906 1.917969 C 16.648438 1.921875 17.914062 1.941406 19.183594 1.941406 C 20.421875 1.945312 21.660156 1.933594 22.898438 1.925781 C 24.421875 1.914062 25.949219 1.90625 27.472656 1.90625 Z M 8.46875 0.0078125 C 6.402344 0.0078125 4.742188 1.671875 4.742188 3.746094 L 4.742188 16.539062 C 4.742188 18.609375 6.402344 20.277344 8.46875 20.277344 L 62.285156 20.277344 C 64.351562 20.277344 66.011719 18.609375 66.011719 16.539062 L 66.011719 3.746094 C 66.011719 1.671875 64.351562 0.0078125 62.285156 0.0078125 L 8.46875 0.0078125 " fill-opacity="1" fill-rule="nonzero"/><path fill="#f1ebc8" d="M 35.207031 50.226562 C 34.816406 50.328125 34.441406 50.5 34.113281 50.734375 C 33.828125 50.9375 33.574219 51.183594 33.351562 51.453125 C 33.167969 51.683594 33.003906 51.933594 32.878906 52.203125 C 32.714844 52.5625 32.621094 52.945312 32.539062 53.328125 C 32.378906 54.078125 32.257812 54.835938 32.179688 55.597656 L 32.179688 53.382812 C 32.179688 53.050781 32.179688 52.722656 32.179688 52.390625 C 32.179688 52.136719 32.179688 51.878906 32.199219 51.625 C 32.214844 51.378906 32.25 51.125 32.367188 50.90625 C 32.460938 50.738281 32.601562 50.59375 32.765625 50.488281 C 32.929688 50.382812 33.117188 50.316406 33.308594 50.277344 C 33.523438 50.234375 33.742188 50.230469 33.964844 50.230469 C 34.015625 50.230469 34.070312 50.230469 34.121094 50.230469 C 34.484375 50.230469 34.847656 50.230469 35.207031 50.226562 Z M 33.367188 49.375 C 32.277344 49.375 31.402344 50.253906 31.402344 51.34375 L 31.402344 73.023438 C 31.402344 74.117188 32.277344 74.992188 33.367188 74.992188 L 37.386719 74.992188 C 38.476562 74.992188 39.351562 74.117188 39.351562 73.023438 L 39.351562 51.34375 C 39.351562 50.253906 38.476562 49.375 37.386719 49.375 L 33.367188 49.375 " fill-opacity="1" fill-rule="nonzero"/></svg>